#amk 2

#0 w255 t37

@9 v150 o5 l32
[d<g>c+<g>c<g>c+<g>
d<g>d+<g>d<g>c+<g>]2

[c+<f+>c<f+>c+<f+>d<f+>
c+<f+>d<f+>c+<f+>c<f+>]2

[f<a+>f+<a+>f<a+>e<a+>
f<a+>e<a+>d+<a+>e<a+>]2

[[r2]]255

#1

@9 v150 04 l32
[a+rarg+rara+rbra+rar]2
[arg+rara+rara+rarg+r]2
>[c+rdrc+rcrc+rcr<br>cr]2


[[r2]]255

#2
@8 o2 v255
d+2d4f+4f2e4a+4a4e4d+4e4d+2

[[r2]]255

#3

[[r2]]255

#4

[[r2]]255

#5

[[r2]]255

#6

[[r2]]255

#7

[[r2]]255